<?xml version="1.0" standalone="no"?><!DOCTYPE svg PUBLIC "-//W3C//DTD SVG 1.1//EN" "http://www.w3.org/Graphics/SVG/1.1/DTD/svg11.dtd"><svg t="1623136544743" class="icon" viewBox="0 0 1024 1024" version="1.1" xmlns="http://www.w3.org/2000/svg" p-id="2852" xmlns:xlink="http://www.w3.org/1999/xlink" width="200" height="200"><defs><style type="text/css"></style></defs><path d="M471.04 20.48h532.48v552.96H471.04z" fill="#EAFBF3" p-id="2853"></path><path d="M163.84 20.48a102.4 102.4 0 1 1 0 204.8A102.4 102.4 0 0 1 163.84 20.48z m0 61.44a40.96 40.96 0 1 0 0 81.92 40.96 40.96 0 0 0 0-81.92zM586.46528 127.32416a122.88 122.88 0 1 1 0 245.76 122.88 122.88 0 0 1 0-245.76z m0 61.44a61.44 61.44 0 1 0 0 122.88 61.44 61.44 0 0 0 0-122.88zM586.46528 640.2048a122.88 122.88 0 1 1 0 245.76 122.88 122.88 0 0 1 0-245.76z m0 61.44a61.44 61.44 0 1 0 0 122.88 61.44 61.44 0 0 0 0-122.88zM163.84 786.432a102.4 102.4 0 1 1 0 204.8 102.4 102.4 0 0 1 0-204.8z m0 61.44a40.96 40.96 0 1 0 0 81.92 40.96 40.96 0 0 0 0-81.92z" fill="#515363" p-id="2854"></path><path d="M194.56 215.04v184.32h-61.44v-184.32zM503.25504 263.08608l33.73056 51.36384-257.80224 169.32864-33.73056-51.34336zM257.6384 578.39616l36.29056-49.5616 244.51072 179.0976-36.31104 49.5616zM194.56 604.16v204.8h-61.44v-204.8z" fill="#515363" p-id="2855"></path><path d="M163.84 362.41408a143.36 143.36 0 1 1 0 286.72 143.36 143.36 0 0 1 0-286.72z m0 61.44a81.92 81.92 0 1 0 0 163.84 81.92 81.92 0 0 0 0-163.84z" fill="#07B25A" p-id="2856"></path></svg>