<?xml version="1.0" standalone="no"?><!DOCTYPE svg PUBLIC "-//W3C//DTD SVG 1.1//EN" "http://www.w3.org/Graphics/SVG/1.1/DTD/svg11.dtd"><svg t="1624532025976" class="icon" viewBox="0 0 1024 1024" version="1.1" xmlns="http://www.w3.org/2000/svg" p-id="36134" width="200" height="200" xmlns:xlink="http://www.w3.org/1999/xlink"><defs><style type="text/css"></style></defs><path d="M750.666 589.712c-40.32 0-74.874 17.277-97.91 40.32l-115.19-63.356c5.759-23.041 11.519-40.32 11.519-63.355 0-34.558-11.52-63.356-28.798-92.154l109.428-63.355c23.041 40.319 69.117 69.117 120.954 69.117 80.635 0 143.987-63.355 143.987-143.987S831.3 128.955 750.669 128.955s-143.987 63.356-143.987 143.987v23.041l-126.709 74.874c-23.04-17.277-46.075-28.797-74.874-34.557v-63.355c51.835-11.52 86.394-57.596 86.394-109.428 0-63.355-51.835-115.19-115.19-115.19s-115.19 51.836-115.19 115.19c0 51.836 34.558 97.91 86.395 109.428V336.3c-80.635 11.52-143.987 86.395-143.987 167.028s63.356 155.508 143.987 167.028v63.355c-51.835 11.52-86.394 57.596-86.394 109.428 0 63.355 51.835 115.19 115.19 115.19s115.19-51.836 115.19-115.19c0-51.835-34.558-97.91-86.395-109.428v-63.355c40.319-5.76 74.874-28.797 103.67-57.596l109.427 63.355c-5.759 17.277-11.519 40.32-11.519 57.596 0 80.636 63.355 143.987 143.987 143.987s143.987-63.355 143.987-143.987-63.355-143.987-143.987-143.987z" p-id="36135"></path></svg>