<?xml version="1.0" standalone="no"?><!DOCTYPE svg PUBLIC "-//W3C//DTD SVG 1.1//EN" "http://www.w3.org/Graphics/SVG/1.1/DTD/svg11.dtd"><svg t="1626943643496" class="icon" viewBox="0 0 1024 1024" version="1.1" xmlns="http://www.w3.org/2000/svg" p-id="21959" xmlns:xlink="http://www.w3.org/1999/xlink" width="300" height="300"><defs><style type="text/css">@font-face { font-family: feedback-iconfont; src: url("//at.alicdn.com/t/font_1031158_1uhr8ri0pk5.eot?#iefix") format("embedded-opentype"), url("//at.alicdn.com/t/font_1031158_1uhr8ri0pk5.woff2") format("woff2"), url("//at.alicdn.com/t/font_1031158_1uhr8ri0pk5.woff") format("woff"), url("//at.alicdn.com/t/font_1031158_1uhr8ri0pk5.ttf") format("truetype"), url("//at.alicdn.com/t/font_1031158_1uhr8ri0pk5.svg#iconfont") format("svg"); }
</style></defs><path d="M950.171312 225.669685L546.506175 7.4936a82.9778 82.9778 0 0 0-68.879057 0L73.96198 225.669685a73.998712 73.998712 0 0 0-34.341073 55.922389v461.162807a74.825733 74.825733 0 0 0 34.341073 55.92239l403.665138 218.569904a88.924476 88.924476 0 0 0 68.879057-0.39382l403.665137-218.176084a74.825733 74.825733 0 0 0 34.341074-55.92239V281.592074a73.998712 73.998712 0 0 0-34.341074-55.922389zM317.618196 486.77211c0-132.717221 121.178305-264.646803 180.566308-321.356831v609.238993c-104.007769-9.451672-180.566308-129.960483-180.566308-287.882162z m208.291211 447.379119a13.901834 13.901834 0 0 1-27.567375 0v-132.717221h27.567375v132.717221z m0-159.496957V165.415279c59.427385 56.710029 180.60569 188.245791 180.60569 321.356831 0 157.921678-76.401011 278.43049-180.60569 287.882162z" p-id="21960"></path></svg>