<?xml version="1.0" standalone="no"?><!DOCTYPE svg PUBLIC "-//W3C//DTD SVG 1.1//EN" "http://www.w3.org/Graphics/SVG/1.1/DTD/svg11.dtd"><svg t="1623496179804" class="icon" viewBox="0 0 1024 1024" version="1.1" xmlns="http://www.w3.org/2000/svg" p-id="7239" xmlns:xlink="http://www.w3.org/1999/xlink" width="200" height="200"><defs><style type="text/css"></style></defs><path d="M962.56 486.819672h-379.383607V107.436066a26.523279 26.523279 0 0 0-26.859016-26.859017 24.84459 24.84459 0 0 0-26.859016 26.859017v379.383606H153.432131a26.523279 26.523279 0 0 0-26.859016 26.859017 24.84459 24.84459 0 0 0 26.859016 26.859016h376.02623v379.383606a26.523279 26.523279 0 0 0 26.859016 26.859017 24.84459 24.84459 0 0 0 26.859016-26.859017V537.180328h379.383607a26.523279 26.523279 0 0 0 26.859016-26.859017c-3.357377-13.429508-13.429508-26.859016-26.859016-23.501639z" fill="#7A7F8F" p-id="7240"></path></svg>