<?xml version="1.0" standalone="no"?><!DOCTYPE svg PUBLIC "-//W3C//DTD SVG 1.1//EN" "http://www.w3.org/Graphics/SVG/1.1/DTD/svg11.dtd"><svg t="1627892218091" class="icon" viewBox="0 0 1213 1024" version="1.1" xmlns="http://www.w3.org/2000/svg" p-id="2699" xmlns:xlink="http://www.w3.org/1999/xlink" width="355.37109375" height="300"><defs><style type="text/css"></style></defs><path d="M113.777778 88.493827c19.418074 0 35.397531 14.664691 37.622518 33.475951l0.303408 4.449975v720.592593h948.148148c19.418074 0 35.397531 14.664691 37.622518 33.47595l0.303408 4.449976c0 19.418074-14.664691 35.397531-33.475951 37.622518l-4.449975 0.303408h-986.074074a37.925926 37.925926 0 0 1-37.622519-33.475951L75.851852 884.938272v-758.518519c0-20.935111 16.990815-37.925926 37.925926-37.925926z m955.935605 195.090963a37.925926 37.925926 0 0 1 4.449975 49.961087l-3.034074 3.640888L798.46716 624.007901a37.925926 37.925926 0 0 1-40.45432 9.506766l-4.551112-2.022716-237.365728-123.587951-207.024988 244.54637a37.925926 37.925926 0 0 1-49.556543 7.281778l-3.84316-2.831802a37.925926 37.925926 0 0 1-7.281778-49.556544l2.831802-3.944296 226.544198-267.605333a37.925926 37.925926 0 0 1 42.072494-11.124938l4.348839 2.022716 238.882766 124.397037 253.041777-266.290568a37.925926 37.925926 0 0 1 53.601976-1.314766z" p-id="2700"></path></svg>