<?xml version="1.0" standalone="no"?><!DOCTYPE svg PUBLIC "-//W3C//DTD SVG 1.1//EN" "http://www.w3.org/Graphics/SVG/1.1/DTD/svg11.dtd"><svg t="1624425975053" class="icon" viewBox="0 0 1024 1024" version="1.1" xmlns="http://www.w3.org/2000/svg" p-id="9288" xmlns:xlink="http://www.w3.org/1999/xlink" width="200" height="200"><defs><style type="text/css"></style></defs><path d="M102.4 256.307c0-56.73 45.824-102.707 102.093-102.707h615.014A102.4 102.4 0 0 1 921.6 256.307v511.386A102.451 102.451 0 0 1 819.507 870.4H204.493A102.4 102.4 0 0 1 102.4 767.693V256.307z m245.76-41.267H204.698a41.165 41.165 0 0 0-40.858 41.267v511.386c0 22.886 18.33 41.267 40.858 41.267H348.16V215.04z m327.68 593.92h143.462c22.528 0 40.858-18.432 40.858-41.267V256.307a41.165 41.165 0 0 0-40.858-41.267H675.84v593.92z m-256-593.92v593.92h184.32V215.04H419.84z" p-id="9289"></path></svg>