<?xml version="1.0" standalone="no"?><!DOCTYPE svg PUBLIC "-//W3C//DTD SVG 1.1//EN" "http://www.w3.org/Graphics/SVG/1.1/DTD/svg11.dtd"><svg t="1627888703731" class="icon" viewBox="0 0 1435 1024" version="1.1" xmlns="http://www.w3.org/2000/svg" p-id="4452" xmlns:xlink="http://www.w3.org/1999/xlink" width="420.41015625" height="300"><defs><style type="text/css"></style></defs><path d="M731.541186 636.157044l-0.788299 387.842956L431.987683 851.362587l0.788299-387.842957z" fill="#5B73FF" opacity=".9" p-id="4453"></path><path d="M731.541186 636.157044l341.333333-198.65127-1.576598 387.842956-340.545034 198.65127z" fill="#9DABFF" p-id="4454"></path><path d="M432.775982 463.51963l341.333333-197.862971 298.765204 171.849115-341.333333 198.65127z" fill="#5B73FF" opacity=".1" p-id="4455"></path><path d="M731.541186 636.157044l170.272517 107.208622 320.837567-212.840647-149.776751-93.019245zM774.109315 265.656659l166.331024 34.685142 294.035412 150.56505-161.601232-13.401077z" fill="#EFF1FF" p-id="4456"></path><path d="M432.775982 463.51963L299.553503 414.645112l349.21632-181.308699 125.339492 32.320246z" fill="#BDC8FF" p-id="4457"></path><path d="M432.775982 463.51963L268.021555 588.859122l295.612009 192.344881 167.907622-145.046959z" fill="#CFD5FF" p-id="4458"></path><path d="M774.109315 265.656659v350.792918l298.765204-178.943803z" fill="#DEE3FF" p-id="4459"></path><path d="M1368.486528 401.244034l67.005389 79.618168V401.244034z" fill="#EFF1FF" p-id="4460"></path><path d="M1205.308699 817.465743l-45.721324-15.765974 66.21709-43.356428-20.495766 59.122402z m-32.320246-17.342571l28.378753 10.247883 12.612779-37.050039-40.991532 26.802156z" fill="#9DABFF" p-id="4461"></path><path d="M238.854503 121.397998l-22.860662 63.063896 87.501155-63.063896z" fill="#CFD5FF" p-id="4462"></path><path d="M24.437259 487.95689m-24.437259 0a24.437259 24.437259 0 1 0 48.874519 0 24.437259 24.437259 0 1 0-48.874519 0Z" fill="#DEE3FF" p-id="4463"></path><path d="M221.511932 769.379523c-16.554273 0-29.167052-13.401078-29.167051-29.167052s13.401078-29.167052 29.167051-29.167051 29.167052 13.401078 29.167052 29.167051-12.612779 29.167052-29.167052 29.167052z m0-48.874519c-11.036182 0-19.707467 8.671286-19.707467 19.707467s8.671286 19.707467 19.707467 19.707467 19.707467-8.671286 19.707468-19.707467-8.671286-19.707467-19.707468-19.707467z" fill="#9DABFF" p-id="4464"></path><path d="M1344.049269 636.157044m-24.43726 0a24.437259 24.437259 0 1 0 48.874519 0 24.437259 24.437259 0 1 0-48.874519 0Z" fill="#CFD5FF" p-id="4465"></path><path d="M661.382602 11.82448l59.122402 14.977676L701.585835 0z" fill="#DEE3FF" p-id="4466"></path><path d="M749.672055 437.505774m-63.063895 0a63.063895 63.063895 0 1 0 126.127791 0 63.063895 63.063895 0 1 0-126.127791 0Z" fill="#5B73FF" p-id="4467"></path><path d="M776.474211 417.798306v11.036182h-5.518091v-6.306389h-42.568129v7.094688h-5.518091v-5.518091-5.518091H748.883757c-0.788299-2.364896-1.576597-4.729792-3.153195-7.094688 1.576597-0.788299 3.153195-1.576597 5.518091-2.364896 0.788299 3.153195 2.364896 5.518091 3.153195 7.882987-1.576597 0.788299-3.153195 0.788299-4.729793 1.576597h26.802156z m-46.509623 24.43726c3.153195 0 7.094688 0.788299 11.824481 0.788299h15.765973c3.941493 0 7.882987 0 11.036182-0.788299v5.518091c-3.153195 0-7.094688-0.788299-11.036182-0.788299h-5.51809v13.401078h14.189376c4.729792 0 7.882987 0 11.036182-0.788299v5.518091c-2.364896 0-6.30639-0.788299-10.247883-0.788299h-31.531948c-6.30639 0-10.247883 0-13.401078 0.788299v-5.518091c3.153195 0 7.882987 0.788299 13.401078 0.788299h11.036182v-13.401078H741.00077c-3.941493 0-7.882987 0-11.036182 0.788299v-5.518091z m10.247883-17.342571c1.576597 1.576597 3.153195 2.364896 5.518091 3.941493-1.576597 0.788299-3.941493 2.364896-7.094688 4.729792s-6.30639 4.729792-10.247883 7.094688c-1.576597-1.576597-2.364896-3.153195-3.941494-3.941493 3.153195-1.576597 6.30639-3.153195 8.671286-4.729792l7.094688-7.094688z m14.189377 5.51809c0.788299-0.788299 1.576597-2.364896 3.153194-3.941493 1.576597 0.788299 3.941493 2.364896 7.094689 3.941493s6.30639 3.941493 11.036181 6.30639c-1.576597 1.576597-2.364896 3.153195-3.941493 4.729792-3.153195-2.364896-5.518091-3.941493-8.671286-5.518091s-5.518091-3.941493-8.671285-5.518091z" fill="#FFFFFF" p-id="4468"></path><path d="M618.814473 505.299461m-17.342572 0a17.342571 17.342571 0 1 0 34.685143 0 17.342571 17.342571 0 1 0-34.685143 0Z" fill="#BDC8FF" p-id="4469"></path><path d="M923.097768 401.244034m-20.495766 0a20.495766 20.495766 0 1 0 40.991531 0 20.495766 20.495766 0 1 0-40.991531 0Z" fill="#F5FCFF" p-id="4470"></path><path d="M903.3903 305.071594h-4.729792c-15.765974-2.364896-26.802156-17.342571-24.437259-33.108546 0.788299-7.882987 5.518091-14.977675 11.82448-19.707467s14.189376-6.30639 22.072363-5.518091c15.765974 2.364896 26.802156 17.342571 24.43726 33.108545-0.788299 7.882987-5.518091 14.977675-11.824481 19.707468-5.518091 3.153195-11.036182 5.518091-17.342571 5.518091z m-0.788298-49.662818c-3.941493 0-7.882987 1.576597-11.824481 3.941493-3.941493 3.153195-7.094688 7.882987-7.882987 12.612779-0.788299 5.518091 0.788299 10.247883 3.941494 14.189377s7.882987 7.094688 12.612779 7.882987c5.518091 0.788299 10.247883-0.788299 14.189376-3.941494s7.094688-7.882987 7.882987-12.612779c1.576597-11.036182-5.518091-20.495766-16.554272-22.072363h-2.364896z" fill="#9DABFF" p-id="4471"></path><path d="M817.465743 342.909931c-7.094688 0-14.977675-0.788299-22.860662-1.576598-11.036182-1.576597-22.072363-4.729792-32.320247-8.671285-2.364896-0.788299-3.941493-3.941493-3.153194-7.094688 0.788299-2.364896 3.941493-3.941493 7.094688-3.153195 9.459584 3.941493 19.707467 6.30639 29.95535 7.882987 44.144727 6.30639 86.712856-7.882987 119.033103-38.626636 2.364896-2.364896 5.518091-1.576597 7.094688 0 2.364896 2.364896 1.576597 5.518091 0 7.094688-28.378753 29.167052-65.428791 44.144727-104.843726 44.144727z" fill="#9DABFF" p-id="4472"></path><path d="M910.484988 304.283295h-2.364896c-2.364896 0-4.729792-2.364896-4.729792-4.729792s2.364896-4.729792 4.729792-4.729792c82.771363 0.788299 154.506543-59.910701 166.331024-142.682064 0-2.364896 3.153195-4.729792 5.518091-3.941493 2.364896 0 4.729792 3.153195 3.941494 5.518091-11.82448 85.924557-86.712856 150.56505-173.425713 150.56505z" fill="#9DABFF" p-id="4473"></path></svg>