<?xml version="1.0" standalone="no"?><!DOCTYPE svg PUBLIC "-//W3C//DTD SVG 1.1//EN" "http://www.w3.org/Graphics/SVG/1.1/DTD/svg11.dtd"><svg t="1623215783412" class="icon" viewBox="0 0 1024 1024" version="1.1" xmlns="http://www.w3.org/2000/svg" p-id="3352" xmlns:xlink="http://www.w3.org/1999/xlink" width="200" height="200"><defs><style type="text/css"></style></defs><path d="M94.90248 855.433748C94.90248 948.513026 284.579496 1024 518.653089 1024c234.137565 0 423.814581-75.486974 423.814581-168.566252 0-35.888299-28.083713-69.089773-75.998751-96.34185-76.574499 43.692884-203.750859 72.224402-347.751859 72.224402-144.001 0-271.17736-28.531517-347.751859-72.224402C122.986194 786.343975 94.90248 819.609421 94.90248 855.433748zM94.90248 626.669832c0 93.079278 189.677016 168.566252 423.750609 168.566252 234.137565 0 423.814581-75.486974 423.814581-168.566252 0-35.888299-28.083713-69.089773-75.998751-96.34185-76.574499 43.692884-203.750859 72.288374-347.751859 72.288374-144.001 0-271.17736-28.595489-347.751859-72.288374C122.986194 557.580059 94.90248 590.845505 94.90248 626.669832zM94.90248 397.841944c0 93.079278 189.677016 168.630224 423.750609 168.630224 234.137565 0 423.814581-75.550946 423.814581-168.630224 0-35.824327-28.083713-69.089773-75.998751-96.405822-76.574499 43.692884-203.750859 72.288374-347.751859 72.288374-144.001 0-271.17736-28.595489-347.751859-72.288374C122.986194 328.816143 94.90248 362.017617 94.90248 397.841944zM81.660274 169.014056c0 93.14325 189.677016 168.566252 423.750609 168.566252 234.137565 0 423.814581-75.486974 423.814581-168.566252C929.161492 75.934779 739.420504 0.447804 505.346911 0.447804 271.273318 0.447804 81.660274 75.934779 81.660274 169.014056z" p-id="3353"></path></svg>