<?xml version="1.0" standalone="no"?><!DOCTYPE svg PUBLIC "-//W3C//DTD SVG 1.1//EN" "http://www.w3.org/Graphics/SVG/1.1/DTD/svg11.dtd"><svg t="1627889163729" class="icon" viewBox="0 0 1102 1024" version="1.1" xmlns="http://www.w3.org/2000/svg" p-id="17155" xmlns:xlink="http://www.w3.org/1999/xlink" width="322.8515625" height="300"><defs><style type="text/css"></style></defs><path d="M1004.544 0H95.310769C44.110769 0 0 44.032 0 95.310769v601.245539c0 51.357538 44.032 95.310769 95.310769 95.310769H520.664615v153.993846H175.970462a31.507692 31.507692 0 0 0-29.302154 29.302154 31.507692 31.507692 0 0 0 29.302154 29.380923h755.239384a31.507692 31.507692 0 0 0 29.302154-29.380923 31.507692 31.507692 0 0 0-29.302154-29.302154H579.268923v-153.993846h425.275077c51.278769 0 95.310769-43.953231 95.310769-95.310769V95.310769c0-51.278769-44.032-95.310769-95.310769-95.310769zM95.310769 66.008615h916.558769a31.507692 31.507692 0 0 1 29.302154 29.302154v278.606769h-212.676923L703.960615 132.017231c-7.325538-7.404308-14.651077-14.729846-29.302153-14.729846s-22.055385 7.325538-29.380924 14.729846L447.251692 564.617846 344.615385 388.647385c0-14.729846-14.651077-22.055385-29.302154-22.055385H66.008615V95.310769c0-22.055385 7.325538-29.302154 29.302154-29.302154z m909.233231 659.849847H95.310769c-22.055385 0-29.302154-14.651077-29.302154-29.302154V432.600615h234.57477L425.353846 652.603077c7.325538 14.651077 14.651077 21.976615 29.302154 21.976615s22.055385-7.325538 29.380923-22.055384l190.621539-417.87077 95.310769 183.296c7.325538 14.651077 14.651077 22.055385 29.302154 22.055385h234.653538v263.876923c0 7.325538-7.325538 22.055385-29.302154 22.055385z" p-id="17156"></path></svg>