<?xml version="1.0" standalone="no"?><!DOCTYPE svg PUBLIC "-//W3C//DTD SVG 1.1//EN" "http://www.w3.org/Graphics/SVG/1.1/DTD/svg11.dtd"><svg t="1627889082902" class="icon" viewBox="0 0 1024 1024" version="1.1" xmlns="http://www.w3.org/2000/svg" p-id="14775" xmlns:xlink="http://www.w3.org/1999/xlink" width="300" height="300"><defs><style type="text/css"></style></defs><path d="M141.885 1004.098c-55.93 0-101.525-45.493-101.525-101.524V125.525C40.359 69.596 85.854 24 141.885 24h668.124c56.032 0 101.628 45.494 101.628 101.525v65.05c0 23.405-19.148 42.555-42.555 42.555-23.507 0-42.558-19.048-42.558-42.555v-65.05c0-8.916-7.497-16.415-16.414-16.415H141.885c-8.916 0-16.415 7.499-16.415 16.415v777.048c0 8.915 7.499 16.414 16.415 16.414H725c23.406 0 42.556 19.149 42.556 42.555s-19.048 42.556-42.556 42.556H141.885z" p-id="14776"></path><path d="M946.897 969.952a42.932 42.932 0 0 1-32.22-14.59l-167.59-192.819-4.053 2.129c-37.691 19.758-78.119 29.789-120.271 29.789-142.968 0-259.185-116.318-259.185-259.287 0-142.965 116.32-259.285 259.185-259.285 143.068 0 259.387 116.32 259.387 259.285 0 62.72-23 123.412-64.846 170.833l-3.345 3.851 165.157 189.675c15.401 17.731 13.476 44.685-4.255 60.085-7.698 6.688-17.629 10.334-27.964 10.334zM622.765 360.9c-96.055 0-174.072 78.118-174.072 174.174 0 96.055 78.12 174.072 174.072 174.072 96.056 0 174.174-78.12 174.174-174.072 0.102-95.952-78.119-174.174-174.174-174.174zM240.168 776.427c-23.507 0-42.555-19.151-42.555-42.558 0-23.507 19.149-42.555 42.555-42.555h89.571c17.022 31.815 38.908 60.389 65.149 85.213h-154.72v-0.1z m0-219.872c-23.507 0-42.555-19.049-42.555-42.555 0-23.509 19.149-42.558 42.555-42.558h56.639c-4.154 21.582-6.281 42.962-6.281 63.632 0 7.497 0.405 14.893 0.913 21.48h-51.271z m0-203.458c-23.507 0-42.555-19.149-42.555-42.555s19.149-42.555 42.555-42.555h185.523c-31.612 23.303-58.665 51.877-80.45 85.11H240.168z" p-id="14777"></path></svg>