<?xml version="1.0" standalone="no"?><!DOCTYPE svg PUBLIC "-//W3C//DTD SVG 1.1//EN" "http://www.w3.org/Graphics/SVG/1.1/DTD/svg11.dtd"><svg t="1627033884299" class="icon" viewBox="0 0 1638 1024" version="1.1" xmlns="http://www.w3.org/2000/svg" p-id="16970" xmlns:xlink="http://www.w3.org/1999/xlink" width="479.8828125" height="300"><defs><style type="text/css">@font-face { font-family: feedback-iconfont; src: url("//at.alicdn.com/t/font_1031158_1uhr8ri0pk5.eot?#iefix") format("embedded-opentype"), url("//at.alicdn.com/t/font_1031158_1uhr8ri0pk5.woff2") format("woff2"), url("//at.alicdn.com/t/font_1031158_1uhr8ri0pk5.woff") format("woff"), url("//at.alicdn.com/t/font_1031158_1uhr8ri0pk5.ttf") format("truetype"), url("//at.alicdn.com/t/font_1031158_1uhr8ri0pk5.svg#iconfont") format("svg"); }
</style></defs><path d="M1433.6 0H204.8C92.16 0 0 92.16 0 204.8v614.4c0 112.64 92.16 204.8 204.8 204.8h1228.8c112.64 0 204.8-92.16 204.8-204.8V204.8c0-112.64-92.16-204.8-204.8-204.8zM849.92 716.8h-71.68V573.44l10.24-194.56L655.36 716.8h-51.2L471.04 378.88l10.24 194.56V716.8H409.6V276.48h102.4L634.88 614.4l122.88-337.92h102.4V716.8z m358.4-30.72c-30.72 20.48-61.44 30.72-112.64 30.72-30.72 0-61.44-10.24-92.16-20.48-20.48 0-40.96-20.48-51.2-40.96-20.48-20.48-20.48-40.96-20.48-71.68h71.68c0 30.72 10.24 40.96 20.48 61.44 20.48 10.24 40.96 20.48 71.68 20.48 30.72 0 51.2-10.24 61.44-20.48 10.24-10.24 20.48-20.48 20.48-40.96s-10.24-30.72-20.48-40.96c-10.24-10.24-40.96-20.48-71.68-30.72-30.72-10.24-61.44-30.72-81.92-40.96-40.96-20.48-61.44-61.44-61.44-102.4 0-30.72 10.24-61.44 40.96-81.92 30.72-20.48 61.44-30.72 112.64-30.72 30.72 0 61.44 10.24 81.92 20.48s40.96 30.72 51.2 51.2c10.24 20.48 20.48 40.96 20.48 71.68h-71.68c0-20.48-10.24-40.96-20.48-51.2-10.24-10.24-30.72-20.48-61.44-20.48-20.48 0-40.96 10.24-61.44 20.48-10.24-10.24-20.48 10.24-20.48 30.72 0 20.48 10.24 30.72 20.48 40.96 10.24 10.24 40.96 20.48 71.68 30.72 30.72 10.24 61.44 20.48 81.92 30.72 30.72 10.24 40.96 30.72 51.2 40.96 10.24 20.48 10.24 40.96 10.24 61.44 10.24 40.96-10.24 61.44-40.96 81.92z" p-id="16971"></path></svg>