<?xml version="1.0" standalone="no"?><!DOCTYPE svg PUBLIC "-//W3C//DTD SVG 1.1//EN" "http://www.w3.org/Graphics/SVG/1.1/DTD/svg11.dtd"><svg t="1623136559213" class="icon" viewBox="0 0 1024 1024" version="1.1" xmlns="http://www.w3.org/2000/svg" p-id="2565" xmlns:xlink="http://www.w3.org/1999/xlink" width="200" height="200"><defs><style type="text/css"></style></defs><path d="M367.565 472.917l-248.2 224.171a307.716 307.716 0 0 0-3.55 46.182c0 154.71 126.122 280.576 281.104 280.576a279.86 279.86 0 0 0 228.438-117.452l42.154-222.26-51.319-97.928-248.627-113.323z" fill="#24BBB1" p-id="2566"></path><path d="M301.227 378.044l-182.648-49.152C50.534 353.262 2.355 418.714 0.307 490.974c-1.911 66.372 34.44 128.631 92.007 160.529L331.315 447.71l-30.088-69.666z" fill="#17A8E0" p-id="2567"></path><path d="M884.804 280.798c0-154.42-125.61-280.03-279.978-280.03a279.381 279.381 0 0 0-226.902 116.343L334.626 341.3l44.595 95.318L626.45 549.188l254.805-223.607c2.356-15.53 3.55-30.276 3.55-44.783z" fill="#FED10A" p-id="2568"></path><path d="M700.177 682.206L678.69 891.63a146.057 146.057 0 0 0 71.714 11.69 149.76 149.76 0 0 0 102.742-53.76A148.326 148.326 0 0 0 887.09 739.96a144.589 144.589 0 0 0-6.263-31.795l-180.65-25.941z" fill="#93C83E" p-id="2569"></path><path d="M310.903 314.539l37.035-206.95a142.029 142.029 0 0 0-68.796-16.863c-80.503 0.717-145.425 68.574-144.69 151.313a157.355 157.355 0 0 0 3.55 31.983l172.901 40.517z" fill="#EF5098" p-id="2570"></path><path d="M914.09 356.062l-238.284 208.76 36.983 70.468 185.054 43.127c67.38-25.805 113.374-92.33 112.964-164.693a177.442 177.442 0 0 0-96.682-157.662z" fill="#0779A1" p-id="2571"></path></svg>