<?xml version="1.0" standalone="no"?><!DOCTYPE svg PUBLIC "-//W3C//DTD SVG 1.1//EN" "http://www.w3.org/Graphics/SVG/1.1/DTD/svg11.dtd"><svg t="1624531146896" class="icon" viewBox="0 0 1024 1024" version="1.1" xmlns="http://www.w3.org/2000/svg" p-id="2125" xmlns:xlink="http://www.w3.org/1999/xlink" width="200" height="200"><defs><style type="text/css"></style></defs><path d="M571.477333 0C370.474667 0 196.650667 115.882667 112.810667 284.458667h667.349333a203.52 203.52 0 0 0 131.114667-47.36c19.029333-16 36.864-33.493333 53.205333-53.034667l0.042667-0.085333A510.890667 510.890667 0 0 0 571.477333 0zM76.970667 379.264a512.384 512.384 0 0 0 0 265.472h627.2a132.736 132.736 0 1 0 0-265.472z m35.84 360.277333C196.693333 908.074667 370.517333 1024 571.52 1024c157.909333 0 299.136-71.552 393.045333-183.978667l-0.042666-0.085333a424.874667 424.874667 0 0 0-53.205334-53.034667 203.52 203.52 0 0 0-131.114666-47.36z" p-id="2126" fill="#2c2c2c"></path></svg>