<?xml version="1.0" standalone="no"?><!DOCTYPE svg PUBLIC "-//W3C//DTD SVG 1.1//EN" "http://www.w3.org/Graphics/SVG/1.1/DTD/svg11.dtd"><svg t="1627032911214" class="icon" viewBox="0 0 1024 1024" version="1.1" xmlns="http://www.w3.org/2000/svg" p-id="2022" xmlns:xlink="http://www.w3.org/1999/xlink" width="300" height="300"><defs><style type="text/css">@font-face { font-family: feedback-iconfont; src: url("//at.alicdn.com/t/font_1031158_1uhr8ri0pk5.eot?#iefix") format("embedded-opentype"), url("//at.alicdn.com/t/font_1031158_1uhr8ri0pk5.woff2") format("woff2"), url("//at.alicdn.com/t/font_1031158_1uhr8ri0pk5.woff") format("woff"), url("//at.alicdn.com/t/font_1031158_1uhr8ri0pk5.ttf") format("truetype"), url("//at.alicdn.com/t/font_1031158_1uhr8ri0pk5.svg#iconfont") format("svg"); }
</style></defs><path d="M770.362369 626.871611q29.94231-32.663213 77.582861-66.699246 73.513874-42.198744 66.711615-99.374827-6.802259-81.627114-100.73528-85.757941-103.456183 0-121.203896 91.212116l61.257438 12.244067q9.535531-51.721908 50.361456-50.361456 39.477841 0 40.813557 39.477841 5.454175 25.860954-65.338794 78.943313-50.262514 36.769305-88.404638 93.920652v39.465473h221.877337v-53.069992z m-224.598241-74.837222q47.640552 1.360452 50.361456 39.465473-1.37282 40.813557-51.734276 40.813557h-66.699246v-80.27903z m-6.814627-122.514877q43.559196 1.360452 44.919648 34.023665-1.360452 36.769305-44.919648 38.117389h-61.257439v-72.141054z m17.698242 250.459194q111.618895 0 111.618895-88.478844-8.162711-55.803263-70.780602-69.42015 58.524167-17.648771 58.536535-70.830073-6.802259-69.42015-106.177087-72.141054H409.632364v300.870121zM209.534625 434.961319q91.199748 1.37282 93.920652 92.5602 1.37282 100.735279-93.920652 99.374828H186.394575V434.961319z m5.441807 245.017387q166.074074 5.454175 160.632267-152.457187-2.720904-147.003012-164.713622-148.412934H116.974425v300.870121zM556.029356 9.721159L939.342863 187.693003a104.556912 104.556912 0 0 1 60.515374 94.823497v458.967A104.532177 104.532177 0 0 1 939.342863 836.306997l-383.313507 177.971844a104.56928 104.56928 0 0 1-88.058341 0L84.657508 836.306997A104.519809 104.519809 0 0 1 24.129766 741.4835V282.528868a104.544545 104.544545 0 0 1 60.527742-94.823498L467.971015 9.721159a104.56928 104.56928 0 0 1 88.058341 0z" p-id="2023"></path></svg>