<?xml version="1.0" standalone="no"?><!DOCTYPE svg PUBLIC "-//W3C//DTD SVG 1.1//EN" "http://www.w3.org/Graphics/SVG/1.1/DTD/svg11.dtd"><svg t="1626940624057" class="icon" viewBox="0 0 1821 1024" version="1.1" xmlns="http://www.w3.org/2000/svg" p-id="13623" xmlns:xlink="http://www.w3.org/1999/xlink" width="533.49609375" height="300"><defs><style type="text/css">@font-face { font-family: feedback-iconfont; src: url("//at.alicdn.com/t/font_1031158_1uhr8ri0pk5.eot?#iefix") format("embedded-opentype"), url("//at.alicdn.com/t/font_1031158_1uhr8ri0pk5.woff2") format("woff2"), url("//at.alicdn.com/t/font_1031158_1uhr8ri0pk5.woff") format("woff"), url("//at.alicdn.com/t/font_1031158_1uhr8ri0pk5.ttf") format("truetype"), url("//at.alicdn.com/t/font_1031158_1uhr8ri0pk5.svg#iconfont") format("svg"); }
</style></defs><path d="M851.733333 421.6c232.4 0 394.266667-57.733333 394.266667-129.066667v-77.466666c0-71.066667-160.133333-129.066667-394.266667-129.066667s-368 58.4-368 129.066667v77.466666c0.133333 71.333333 135.6 129.066667 368 129.066667zM811.2 665.333333c0-67.2 24.266667-132.133333 68.266667-182.933333h-15.333334c-195.2 0-305.466667-38.933333-361.066666-91.866667-11.6 9.866667-18.8 24.266667-19.066667 39.6v106.8c-0.133333 64.933333 120 119.866667 327.2 128.4zM819.333333 756.133333c-166.933333-5.866667-266.533333-42-315.733333-90.8-12 9.866667-19.066667 24.266667-19.733333 39.6v106.8c0 70 142.4 128 385.733333 128h70.933333c-63.2-42.666667-106.8-108.8-121.2-183.6z" p-id="13624"></path><path d="M1093.466667 452c-134.533333 0-243.733333 109.2-243.733334 243.733333s109.2 243.733333 243.733334 243.733334 243.733333-108.933333 243.733333-243.733334c-0.4-134.533333-109.333333-243.466667-243.733333-243.733333z m57.866666 279.066667c0 20.266667-1.733333 35.733333-5.333333 46.666666-4.8 14.266667-13.466667 25.6-26 34.266667s-29.066667 12.933333-49.733333 12.933333c-24.133333 0-42.666667-6.8-55.733334-20.266666-13.066667-13.466667-19.6-33.333333-19.733333-59.466667l46.533333-5.333333c0.533333 14 2.666667 23.866667 6.133334 29.733333 5.333333 8.8 13.466667 13.2 24.4 13.2 11.066667 0 18.8-3.2 23.333333-9.466667 4.533333-6.266667 6.8-19.333333 6.8-39.066666V576.4h49.2v154.666667z" p-id="13625"></path></svg>