<?xml version="1.0" standalone="no"?><!DOCTYPE svg PUBLIC "-//W3C//DTD SVG 1.1//EN" "http://www.w3.org/Graphics/SVG/1.1/DTD/svg11.dtd"><svg t="1626679061425" class="icon" viewBox="0 0 1289 1024" version="1.1" xmlns="http://www.w3.org/2000/svg" p-id="3783" xmlns:xlink="http://www.w3.org/1999/xlink" width="377.63671875" height="300"><defs><style type="text/css"></style></defs><path d="M743.496222 1006.589421c239.879093-14.831234 423.012594-93.501259 423.012594-188.292192v-96.725441c-43.848866 63.193955-161.853904 113.491184-310.811083 137.350126-9.672544 65.7733-53.521411 121.229219-112.201511 147.667507z m-272.120907-147.667507c-148.957179-23.858942-266.962217-74.156171-310.811083-137.350126v96.725441c0 94.790932 183.778338 174.105793 423.65743 188.292192-59.324937-26.438287-103.173804-81.894207-112.846347-147.667507z m92.211587-196.675063C371.425693 647.415617 212.79597 590.670025 160.564232 514.579345v96.725441c0 79.959698 129.612091 148.312343 312.745592 176.685138 11.607053-52.876574 44.493703-98.015113 90.277078-125.743073z m199.899244 0c45.138539 27.083123 78.670025 72.221662 89.632242 125.743073 183.778338-28.372796 312.745592-96.725441 312.745592-176.685138v-96.725441c-51.586902 76.09068-210.216625 132.836272-402.377834 147.667506z m-99.949622-202.478589c-234.720403 0-441.712846-63.193955-502.972292-151.536524v96.725441c0 105.108312 225.692695 190.871537 502.972292 190.871536s502.972292-85.763224 502.972292-190.871536v-96.725441c-61.259446 88.342569-268.251889 151.536524-502.972292 151.536524z" fill="#589337" p-id="3784"></path><path d="M305.007557 331.445844c95.435768 36.755668 223.11335 57.390428 358.528967 57.390428 277.279597 0 502.972292-85.763224 502.972292-190.871536s-225.692695-190.871537-502.972292-190.871537-502.972292 85.763224-502.972292 190.871537c0 49.652393 51.586902 97.370277 144.443325 133.481108z" fill="#589337" p-id="3785"></path><path d="M763.486146 662.246851c-29.017632-17.410579-63.838791-27.72796-99.949622-27.727959s-70.93199 10.31738-99.949622 27.727959c32.88665 2.579345 65.7733 3.869018 99.949622 3.869018 34.176322 0 67.707809-1.289673 99.949622-3.869018z m-179.90932 344.34257c24.503778 10.962217 51.586902 17.410579 79.959698 17.410579s55.455919-6.448363 79.959698-17.410579c-25.793451 1.289673-52.876574 2.579345-79.959698 2.579345-27.083123 0-53.521411-0.644836-79.959698-2.579345z" fill="#FFFFFF" p-id="3786"></path><path d="M572.61461 886.005038l27.727959-3.869018c0.644836 18.700252 3.869018 30.952141 9.672544 38.04534 5.803526 7.093199 14.186398 10.31738 24.503779 10.317381 7.738035 0 14.186398-1.934509 19.989924-5.803527s9.672544-8.382872 11.607053-14.831234c1.934509-6.448363 3.224181-16.120907 3.224181-30.307305v-166.367758h30.952141v164.433249c0 19.989924-2.579345 36.110831-7.093199 47.073048-4.513854 10.962217-12.251889 19.345088-22.569269 25.148615-10.31738 5.803526-21.924433 9.027708-36.110831 9.027708-20.634761 0-36.110831-5.803526-46.428212-18.055416-10.962217-12.896725-16.120907-30.952141-15.47607-54.811083z" fill="#589337" p-id="3787"></path></svg>