<?xml version="1.0" standalone="no"?><!DOCTYPE svg PUBLIC "-//W3C//DTD SVG 1.1//EN" "http://www.w3.org/Graphics/SVG/1.1/DTD/svg11.dtd"><svg t="1627032953505" class="icon" viewBox="0 0 1216 1024" version="1.1" xmlns="http://www.w3.org/2000/svg" p-id="3585" xmlns:xlink="http://www.w3.org/1999/xlink" width="356.25" height="300"><defs><style type="text/css">@font-face { font-family: feedback-iconfont; src: url("//at.alicdn.com/t/font_1031158_1uhr8ri0pk5.eot?#iefix") format("embedded-opentype"), url("//at.alicdn.com/t/font_1031158_1uhr8ri0pk5.woff2") format("woff2"), url("//at.alicdn.com/t/font_1031158_1uhr8ri0pk5.woff") format("woff"), url("//at.alicdn.com/t/font_1031158_1uhr8ri0pk5.ttf") format("truetype"), url("//at.alicdn.com/t/font_1031158_1uhr8ri0pk5.svg#iconfont") format("svg"); }
</style></defs><path d="M844.416 326.912H419.328c-93.056 0-165.952 74.944-165.952 170.88v33.472c0 95.808 72.832 170.88 165.952 170.88h425.088c92.992 0 165.952-75.072 165.952-170.88v-33.472c0-87.68-76.864-170.88-165.952-170.88z" p-id="3586"></path><path d="M1071.104 43.264H196.672c-72.768 0-137.6 62.592-137.6 141.952v650.496c0 79.232 60.736 141.632 137.6 141.632h874.432c72.832 0 137.6-62.4 137.6-141.696V185.152c0-79.36-60.8-141.888-137.6-141.888z m44.48 483.648c0 154.24-121.408 283.584-275.328 283.584H415.36c-149.824 0-275.392-125.12-275.392-283.584v-33.28c0-154.24 121.408-283.52 275.392-283.52h424.96c149.76 0 275.328 125.056 275.328 283.52v33.28z" p-id="3587"></path></svg>